<svg width="608" height="555" viewBox="0 0 608 555" fill="none" xmlns="http://www.w3.org/2000/svg"> <rect opacity="0.2" x="411.479" y="119.524" width="236.269" height="30.5759" rx="15.288" transform="rotate(-180 411.479 119.524)" fill="url(#paint0_linear_2067_2962)"/> <rect opacity="0.2" x="450.394" y="30.5762" width="192.721" height="30.5759" rx="15.288" transform="rotate(-180 450.394 30.5762)" fill="url(#paint1_linear_2067_2962)"/> <rect opacity="0.2" x="169.651" y="119.524" width="30.576" height="30.5759" rx="15.288" transform="rotate(-180 169.651 119.524)" fill="url(#paint2_linear_2067_2962)"/> <rect opacity="0.2" x="248.407" y="30.5762" width="29.6494" height="30.5759" rx="14.8247" transform="rotate(-180 248.407 30.5762)" fill="url(#paint3_linear_2067_2962)"/> <rect opacity="0.2" x="379.977" y="75.0503" width="30.576" height="30.5759" rx="15.288" transform="rotate(-180 379.977 75.0503)" fill="url(#paint4_linear_2067_2962)"/> <rect opacity="0.2" x="0.09375" y="44.4741" width="340.968" height="30.5759" rx="15.2879" fill="url(#paint5_linear_2067_2962)"/> <path d="M379.505 144.541C378.397 144.539 377.294 144.391 376.225 144.101C373.163 143.267 370.532 141.299 368.866 138.598C367.201 135.896 366.624 132.663 367.253 129.552C367.883 126.441 369.671 123.686 372.257 121.845C374.842 120.003 378.03 119.213 381.176 119.635C384.322 120.057 387.189 121.659 389.198 124.116C391.207 126.574 392.206 129.703 391.994 132.87C391.781 136.036 390.373 139.004 388.054 141.171C385.735 143.338 382.679 144.543 379.505 144.541V144.541ZM379.505 121.045C376.845 121.046 374.276 122.013 372.275 123.766C370.274 125.519 368.977 127.939 368.627 130.576C368.276 133.213 368.895 135.888 370.368 138.103C371.841 140.318 374.069 141.923 376.636 142.619C378.146 143.028 379.726 143.11 381.27 142.859C382.814 142.608 384.286 142.03 385.589 141.164C386.891 140.298 387.994 139.163 388.822 137.836C389.65 136.509 390.185 135.021 390.392 133.47C390.598 131.92 390.47 130.343 390.018 128.846C389.565 127.348 388.797 125.965 387.766 124.789C386.736 123.612 385.465 122.669 384.041 122.024C382.616 121.378 381.07 121.044 379.505 121.045V121.045Z" fill="#8D9AA2"/> <path d="M494.09 194.574C493.961 194.574 493.834 194.543 493.721 194.481C493.607 194.42 493.511 194.331 493.44 194.222C492.47 192.64 491.335 191.058 490.2 189.456C490.082 189.286 490.036 189.075 490.07 188.871C490.105 188.666 490.218 188.483 490.385 188.362C490.468 188.302 490.562 188.259 490.662 188.236C490.762 188.213 490.865 188.209 490.966 188.227C491.067 188.244 491.164 188.281 491.25 188.336C491.337 188.391 491.412 188.463 491.471 188.547C492.616 190.159 493.712 191.771 494.74 193.373C494.797 193.458 494.836 193.554 494.855 193.655C494.874 193.756 494.873 193.86 494.851 193.96C494.829 194.06 494.787 194.155 494.728 194.239C494.669 194.323 494.594 194.394 494.507 194.447C494.384 194.532 494.239 194.576 494.09 194.574V194.574ZM485.36 182.648C485.245 182.647 485.132 182.622 485.028 182.573C484.924 182.524 484.832 182.453 484.759 182.364C482.887 180.079 480.879 177.832 478.871 175.673C478.796 175.6 478.736 175.512 478.696 175.415C478.656 175.318 478.635 175.213 478.635 175.108C478.636 175.003 478.658 174.898 478.7 174.802C478.741 174.705 478.802 174.618 478.878 174.545C478.953 174.473 479.043 174.417 479.141 174.38C479.239 174.343 479.344 174.327 479.448 174.332C479.553 174.337 479.655 174.363 479.749 174.409C479.844 174.455 479.927 174.519 479.996 174.599C482.062 176.777 484.06 179.053 485.962 181.368C486.091 181.529 486.152 181.735 486.132 181.942C486.112 182.148 486.013 182.339 485.855 182.472C485.716 182.589 485.541 182.655 485.36 182.657V182.648ZM473.051 169.617C472.857 169.617 472.67 169.544 472.527 169.412C470.335 167.4 468.056 165.456 465.738 163.629C465.657 163.566 465.59 163.486 465.539 163.396C465.489 163.306 465.458 163.207 465.446 163.104C465.434 163.001 465.443 162.897 465.471 162.798C465.5 162.699 465.547 162.606 465.612 162.526C465.741 162.366 465.926 162.264 466.129 162.241C466.332 162.217 466.536 162.274 466.698 162.399C469.026 164.255 471.325 166.218 473.556 168.259C473.632 168.328 473.694 168.411 473.738 168.504C473.781 168.597 473.806 168.698 473.811 168.801C473.815 168.904 473.799 169.007 473.764 169.103C473.728 169.2 473.674 169.288 473.604 169.363C473.533 169.444 473.447 169.509 473.35 169.554C473.253 169.599 473.148 169.624 473.042 169.627L473.051 169.617ZM459.025 158.482C458.872 158.485 458.722 158.436 458.599 158.345C456.174 156.684 453.642 155.082 451.081 153.578C450.904 153.472 450.775 153.3 450.722 153.099C450.669 152.898 450.697 152.684 450.8 152.504C450.849 152.413 450.916 152.334 450.997 152.271C451.077 152.207 451.17 152.161 451.269 152.134C451.367 152.108 451.471 152.102 451.572 152.117C451.673 152.131 451.77 152.167 451.857 152.22C454.457 153.744 457.008 155.376 459.462 157.056C459.599 157.15 459.702 157.286 459.756 157.443C459.811 157.6 459.814 157.771 459.765 157.93C459.716 158.09 459.618 158.229 459.485 158.328C459.352 158.428 459.191 158.481 459.025 158.482V158.482ZM443.603 149.417C443.485 149.42 443.368 149.393 443.263 149.339C440.625 148.03 437.899 146.78 435.174 145.637C435.08 145.597 434.994 145.539 434.922 145.466C434.85 145.393 434.793 145.306 434.754 145.211C434.716 145.116 434.696 145.014 434.696 144.911C434.697 144.808 434.717 144.706 434.757 144.611C434.796 144.516 434.854 144.43 434.926 144.358C434.999 144.285 435.085 144.228 435.18 144.189C435.274 144.15 435.375 144.13 435.478 144.13C435.58 144.131 435.681 144.151 435.775 144.191C438.53 145.344 441.285 146.604 443.952 147.942C444.106 148.022 444.228 148.152 444.3 148.311C444.372 148.469 444.39 148.647 444.349 148.817C444.309 148.986 444.214 149.138 444.079 149.246C443.943 149.355 443.776 149.415 443.603 149.417V149.417ZM427.113 142.501C424.106 141.524 421.293 140.606 418.384 139.796C418.282 139.771 418.187 139.726 418.103 139.664C418.019 139.601 417.948 139.522 417.896 139.432C417.843 139.341 417.809 139.241 417.795 139.137C417.782 139.032 417.789 138.927 417.817 138.826C417.845 138.724 417.893 138.63 417.958 138.548C418.023 138.466 418.104 138.398 418.196 138.348C418.288 138.298 418.389 138.267 418.493 138.258C418.597 138.248 418.701 138.259 418.801 138.291C421.711 139.112 424.62 140.01 427.375 140.977C427.551 141.036 427.701 141.156 427.797 141.315C427.893 141.475 427.929 141.664 427.899 141.848C427.868 142.033 427.773 142.2 427.631 142.32C427.489 142.439 427.308 142.504 427.123 142.501H427.113ZM409.916 137.617C406.909 136.963 403.97 136.396 401.011 135.898C400.911 135.882 400.814 135.845 400.728 135.791C400.641 135.737 400.566 135.666 400.506 135.583C400.447 135.499 400.404 135.405 400.381 135.305C400.358 135.205 400.355 135.101 400.371 135C400.385 134.897 400.42 134.799 400.473 134.711C400.526 134.623 400.597 134.546 400.68 134.487C400.764 134.427 400.859 134.386 400.959 134.365C401.06 134.344 401.163 134.344 401.264 134.365C404.251 134.863 407.21 135.429 410.081 136.074C410.266 136.117 410.429 136.226 410.54 136.382C410.65 136.538 410.7 136.729 410.68 136.92C410.66 137.11 410.57 137.286 410.43 137.415C410.289 137.543 410.106 137.616 409.916 137.617V137.617Z" fill="#8D9AA2"/> <path d="M231.571 186.235C231.402 186.236 231.238 186.182 231.103 186.081C230.942 185.956 230.837 185.772 230.81 185.569C230.783 185.367 230.837 185.161 230.959 184.998C232.727 182.64 234.589 180.291 236.519 178.03C236.652 177.875 236.84 177.779 237.042 177.765C237.245 177.75 237.445 177.818 237.598 177.952C237.751 178.087 237.845 178.277 237.86 178.482C237.874 178.687 237.807 178.889 237.674 179.044C235.764 181.277 233.921 183.597 232.182 185.936C232.11 186.03 232.018 186.107 231.912 186.159C231.805 186.211 231.689 186.237 231.571 186.235V186.235ZM243.033 172.762C242.934 172.763 242.835 172.744 242.743 172.706C242.651 172.667 242.568 172.611 242.498 172.54C242.355 172.395 242.275 172.198 242.275 171.994C242.275 171.789 242.355 171.593 242.498 171.448C244.561 169.341 246.72 167.263 248.926 165.281C249.002 165.214 249.089 165.162 249.184 165.129C249.279 165.096 249.38 165.082 249.48 165.089C249.58 165.095 249.678 165.121 249.768 165.166C249.858 165.21 249.939 165.273 250.006 165.349C250.072 165.425 250.123 165.514 250.156 165.61C250.188 165.706 250.202 165.808 250.196 165.909C250.19 166.01 250.164 166.11 250.12 166.201C250.076 166.292 250.014 166.374 249.939 166.441C247.761 168.374 245.621 170.442 243.587 172.54C243.514 172.612 243.427 172.669 243.332 172.707C243.237 172.745 243.135 172.764 243.033 172.762V172.762ZM256.214 160.961C256.055 160.96 255.901 160.91 255.772 160.816C255.643 160.722 255.546 160.59 255.494 160.438C255.443 160.286 255.439 160.122 255.484 159.968C255.53 159.814 255.621 159.678 255.746 159.579C258.086 157.752 260.522 156.003 262.939 154.36C263.108 154.246 263.316 154.204 263.516 154.245C263.715 154.286 263.891 154.405 264.004 154.577C264.116 154.749 264.157 154.959 264.117 155.161C264.076 155.363 263.958 155.541 263.789 155.655C261.382 157.269 259.013 158.999 256.673 160.806C256.536 160.913 256.367 160.968 256.195 160.961H256.214ZM270.857 151.112C270.69 151.111 270.527 151.054 270.395 150.951C270.262 150.848 270.167 150.703 270.124 150.539C270.08 150.376 270.091 150.203 270.154 150.046C270.218 149.889 270.331 149.758 270.475 149.672C273.035 148.193 275.68 146.772 278.317 145.516C278.499 145.426 278.709 145.414 278.901 145.481C279.093 145.548 279.25 145.689 279.339 145.874C279.428 146.058 279.44 146.271 279.374 146.465C279.308 146.659 279.168 146.818 278.985 146.908C276.368 148.184 273.761 149.566 271.229 151.015C271.11 151.083 270.975 151.117 270.838 151.112H270.857ZM286.713 143.38C286.532 143.385 286.355 143.325 286.213 143.21C286.072 143.096 285.976 142.934 285.941 142.754C285.907 142.574 285.937 142.388 286.025 142.228C286.114 142.068 286.256 141.945 286.426 141.882C289.12 140.799 291.918 139.775 294.746 138.847C294.938 138.783 295.148 138.799 295.329 138.891C295.51 138.984 295.647 139.145 295.71 139.34C295.774 139.535 295.758 139.747 295.667 139.93C295.575 140.113 295.416 140.252 295.223 140.316C292.425 141.283 289.655 142.249 286.99 143.322C286.896 143.362 286.795 143.382 286.694 143.38H286.713ZM303.438 137.89C303.248 137.896 303.063 137.83 302.918 137.705C302.774 137.58 302.681 137.405 302.657 137.215C302.633 137.024 302.68 136.831 302.789 136.673C302.898 136.516 303.062 136.405 303.247 136.363C306.055 135.638 308.978 134.991 311.843 134.43C311.942 134.406 312.044 134.403 312.143 134.422C312.242 134.44 312.337 134.479 312.42 134.536C312.504 134.593 312.575 134.668 312.628 134.754C312.682 134.841 312.717 134.938 312.732 135.039C312.752 135.139 312.753 135.242 312.734 135.342C312.715 135.442 312.676 135.537 312.62 135.622C312.564 135.706 312.492 135.779 312.408 135.835C312.323 135.891 312.229 135.929 312.13 135.948C309.264 136.508 306.399 137.156 303.581 137.881C303.529 137.904 303.475 137.921 303.419 137.929L303.438 137.89ZM320.707 134.537C320.522 134.538 320.342 134.471 320.201 134.349C320.06 134.226 319.969 134.056 319.943 133.869C319.921 133.666 319.977 133.463 320.1 133.301C320.223 133.139 320.403 133.031 320.602 133C323.468 132.613 326.448 132.304 329.39 132.033C329.591 132.022 329.789 132.091 329.942 132.224C330.096 132.357 330.192 132.545 330.211 132.748C330.219 132.85 330.207 132.952 330.176 133.049C330.144 133.146 330.094 133.236 330.029 133.313C329.963 133.39 329.883 133.453 329.793 133.499C329.703 133.545 329.605 133.572 329.504 133.58C326.639 133.812 323.659 134.121 320.803 134.498L320.707 134.537ZM356.946 133.638L355.781 133.551C355.681 133.545 355.583 133.518 355.492 133.474C355.402 133.429 355.321 133.367 355.254 133.29C355.188 133.214 355.137 133.125 355.104 133.029C355.072 132.933 355.058 132.831 355.065 132.729C355.084 132.527 355.179 132.341 355.33 132.208C355.481 132.075 355.677 132.005 355.877 132.014L357.004 132.091C357.206 132.099 357.398 132.188 357.536 132.338C357.674 132.488 357.747 132.688 357.739 132.893C357.732 133.098 357.644 133.292 357.495 133.432C357.346 133.571 357.149 133.645 356.946 133.638V133.638ZM338.244 133.174C338.042 133.174 337.847 133.092 337.704 132.947C337.561 132.802 337.48 132.605 337.48 132.4C337.48 132.195 337.561 131.999 337.704 131.854C337.847 131.709 338.042 131.627 338.244 131.627C341.148 131.55 344.09 131.55 347.07 131.627C347.273 131.635 347.465 131.722 347.605 131.869C347.746 132.017 347.825 132.214 347.825 132.42C347.817 132.622 347.732 132.814 347.588 132.955C347.444 133.095 347.251 133.174 347.051 133.174C344.08 133.116 341.148 133.116 338.282 133.174H338.244Z" fill="#8D9AA2"/> <g filter="url(#filter0_d_2067_2962)"> <path d="M372.413 327.07H114.21C103.38 327.07 94.6011 334.346 94.6011 343.32V493.349C94.6011 502.324 103.38 509.599 114.21 509.599H372.413C383.242 509.599 392.022 502.324 392.022 493.349V343.32C392.022 334.346 383.242 327.07 372.413 327.07Z" fill="#F9FBFD"/> </g> <path d="M166.578 412.312H133.81C131.601 412.312 129.81 414.103 129.81 416.312V484.289C129.81 486.498 131.601 488.289 133.81 488.289H166.578C168.787 488.289 170.578 486.498 170.578 484.289V416.312C170.578 414.103 168.787 412.312 166.578 412.312Z" fill="url(#paint6_linear_2067_2962)"/> <path d="M302.78 372.471H270.012C267.803 372.471 266.012 374.262 266.012 376.471V484.289C266.012 486.498 267.803 488.289 270.012 488.289H302.78C304.989 488.289 306.78 486.498 306.78 484.289V376.471C306.78 374.262 304.989 372.471 302.78 372.471Z" fill="url(#paint7_linear_2067_2962)"/> <path d="M348.181 412.312H315.413C313.203 412.312 311.413 414.103 311.413 416.312V484.289C311.413 486.498 313.203 488.289 315.413 488.289H348.181C350.39 488.289 352.181 486.498 352.181 484.289V416.312C352.181 414.103 350.39 412.312 348.181 412.312Z" fill="url(#paint8_linear_2067_2962)"/> <path d="M211.978 372.471H179.21C177.001 372.471 175.21 374.262 175.21 376.471V475.95C175.21 478.159 177.001 479.95 179.21 479.95H211.978C214.188 479.95 215.978 478.159 215.978 475.95V376.471C215.978 374.262 214.188 372.471 211.978 372.471Z" fill="url(#paint9_linear_2067_2962)"/> <path d="M257.379 416.018H224.611C222.402 416.018 220.611 417.809 220.611 420.018V484.288C220.611 486.498 222.402 488.288 224.611 488.288H257.379C259.588 488.288 261.379 486.498 261.379 484.288V420.018C261.379 417.809 259.588 416.018 257.379 416.018Z" fill="url(#paint10_linear_2067_2962)"/> <ellipse cx="148.341" cy="260.822" rx="102.846" ry="102.383" fill="white" fill-opacity="0.8" stroke="url(#paint11_linear_2067_2962)" stroke-width="2"/> <g filter="url(#filter1_d_2067_2962)"> <path d="M562.212 167.704H338.576C336.367 167.704 334.576 169.495 334.576 171.704V396.267C334.576 398.476 336.367 400.267 338.576 400.267H562.212C564.421 400.267 566.212 398.476 566.212 396.267V171.704C566.212 169.495 564.421 167.704 562.212 167.704Z" fill="url(#paint12_linear_2067_2962)" shape-rendering="crispEdges"/> </g> <rect x="358.547" y="242.747" width="164.772" height="15.3739" rx="7.68694" fill="url(#paint13_linear_2067_2962)"/> <rect x="358.547" y="293.995" width="146.464" height="15.3739" rx="7.68694" fill="url(#paint14_linear_2067_2962)"/> <rect x="528.548" y="242.747" width="15.6926" height="15.3739" rx="7.68694" fill="white"/> <rect x="358.547" y="268.371" width="15.6926" height="15.3739" rx="7.68694" fill="white"/> <rect x="509.984" y="293.995" width="15.6926" height="15.3739" rx="7.68694" fill="white"/> <rect x="486.703" y="283.744" width="107.233" height="15.3739" rx="7.68694" transform="rotate(-180 486.703 283.744)" fill="url(#paint15_linear_2067_2962)"/> <rect x="358.547" y="217.125" width="107.233" height="15.3739" rx="7.68694" fill="url(#paint16_linear_2067_2962)"/> <rect x="359.256" y="318.658" width="202.767" height="16.1691" rx="8.08454" fill="url(#paint17_linear_2067_2962)"/> <path d="M411.714 533.371C411.635 533.218 411.607 533.043 411.634 532.872C411.678 532.672 411.799 532.497 411.97 532.384C412.141 532.271 412.349 532.228 412.55 532.265C415.434 532.822 418.365 533.279 421.278 533.594C421.483 533.62 421.669 533.725 421.798 533.886C421.926 534.047 421.986 534.252 421.966 534.457C421.941 534.66 421.837 534.845 421.677 534.973C421.518 535.1 421.314 535.161 421.11 535.14C418.154 534.804 415.18 534.347 412.248 533.782C412.134 533.758 412.026 533.709 411.934 533.638C411.841 533.567 411.766 533.476 411.714 533.371V533.371ZM429.374 535.343C429.315 535.228 429.287 535.101 429.294 534.972C429.301 534.769 429.388 534.576 429.536 534.436C429.684 534.296 429.881 534.22 430.085 534.224C432.996 534.302 435.968 534.263 438.895 534.073C438.996 534.066 439.098 534.08 439.194 534.113C439.289 534.145 439.378 534.197 439.453 534.264C439.529 534.332 439.59 534.413 439.634 534.505C439.677 534.596 439.702 534.695 439.707 534.796C439.716 535.001 439.644 535.202 439.507 535.354C439.37 535.507 439.178 535.6 438.973 535.613C435.985 535.768 432.971 535.808 430.024 535.726C429.893 535.721 429.764 535.684 429.65 535.617C429.537 535.55 429.442 535.456 429.374 535.343V535.343ZM447.121 534.392C446.983 533.716 447.279 533.338 447.702 533.275C450.568 532.9 453.502 532.382 456.409 531.748C456.61 531.705 456.82 531.743 456.992 531.854C457.164 531.966 457.285 532.141 457.328 532.341C457.371 532.542 457.333 532.751 457.221 532.924C457.11 533.096 456.934 533.217 456.733 533.26C453.804 533.894 450.818 534.417 447.909 534.814C447.758 534.832 447.606 534.806 447.469 534.738C447.333 534.671 447.22 534.566 447.143 534.435L447.121 534.392ZM464.497 530.645C464.447 530.539 464.42 530.423 464.42 530.306C464.419 530.189 464.444 530.073 464.494 529.966C464.543 529.86 464.615 529.765 464.705 529.689C464.794 529.614 464.9 529.559 465.013 529.528C467.781 528.705 470.618 527.761 473.389 526.688C473.566 526.619 473.762 526.619 473.939 526.687C474.116 526.755 474.261 526.887 474.346 527.056C474.394 527.153 474.422 527.26 474.427 527.368C474.432 527.477 474.414 527.585 474.375 527.686C474.336 527.788 474.276 527.88 474.199 527.957C474.122 528.034 474.03 528.094 473.929 528.133C471.106 529.211 468.256 530.173 465.454 531.013C465.277 531.079 465.081 531.078 464.905 531.01C464.729 530.943 464.584 530.813 464.497 530.645V530.645ZM481.142 524.349C481.095 524.257 481.067 524.157 481.06 524.054C481.052 523.951 481.066 523.848 481.099 523.751C481.132 523.653 481.185 523.563 481.253 523.486C481.322 523.409 481.405 523.346 481.498 523.302C482.799 522.641 484.117 522.057 485.409 521.401C486.701 520.744 488.088 520.039 489.383 519.283C489.561 519.208 489.761 519.2 489.944 519.263C490.127 519.325 490.28 519.453 490.374 519.622C490.467 519.79 490.495 519.988 490.452 520.176C490.409 520.364 490.297 520.53 490.139 520.641C488.786 521.328 487.461 522.089 486.108 522.776C484.756 523.463 483.524 524.089 482.154 524.699C482.061 524.742 481.961 524.767 481.858 524.77C481.756 524.774 481.654 524.758 481.558 524.722C481.462 524.686 481.374 524.632 481.3 524.562C481.225 524.492 481.166 524.408 481.124 524.314L481.142 524.349ZM496.71 515.744C496.62 515.573 496.598 515.375 496.648 515.189C496.698 515.003 496.817 514.843 496.981 514.741C499.433 513.17 501.89 511.478 504.255 509.713C504.337 509.653 504.43 509.609 504.529 509.585C504.627 509.561 504.73 509.556 504.83 509.571C504.931 509.587 505.027 509.621 505.114 509.674C505.201 509.727 505.276 509.796 505.336 509.878C505.45 510.044 505.497 510.246 505.468 510.446C505.438 510.645 505.335 510.826 505.178 510.953C502.821 512.713 500.301 514.449 497.818 516.046C497.644 516.156 497.434 516.193 497.233 516.149C497.032 516.105 496.857 515.984 496.745 515.812L496.71 515.744ZM511.006 505.146C510.927 504.992 510.902 504.816 510.935 504.646C510.969 504.476 511.059 504.322 511.19 504.209C513.413 502.333 515.625 500.332 517.756 498.276C517.829 498.205 517.915 498.15 518.009 498.112C518.104 498.075 518.205 498.057 518.306 498.058C518.408 498.06 518.508 498.082 518.601 498.122C518.694 498.162 518.778 498.221 518.849 498.294C518.922 498.365 518.979 498.451 519.018 498.545C519.057 498.64 519.075 498.741 519.074 498.843C519.072 498.945 519.049 499.046 519.007 499.139C518.965 499.232 518.905 499.316 518.829 499.385C516.643 501.481 514.417 503.499 512.191 505.388C512.114 505.459 512.023 505.514 511.924 505.55C511.825 505.585 511.72 505.6 511.616 505.593C511.511 505.587 511.409 505.559 511.315 505.512C511.222 505.464 511.139 505.399 511.072 505.318C511.031 505.255 511.003 505.185 510.988 505.112L511.006 505.146ZM523.814 492.795C523.744 492.656 523.717 492.499 523.737 492.344C523.757 492.19 523.823 492.044 523.926 491.927C525.939 489.725 527.865 487.459 529.661 485.194C529.789 485.032 529.976 484.929 530.181 484.905C530.385 484.881 530.59 484.939 530.751 485.067C530.913 485.194 531.016 485.381 531.04 485.585C531.063 485.789 531.004 485.994 530.877 486.155C529.05 488.447 527.102 490.735 525.072 492.967C524.935 493.111 524.748 493.195 524.549 493.203C524.351 493.211 524.157 493.142 524.01 493.009C523.92 492.944 523.847 492.859 523.797 492.761L523.814 492.795ZM534.881 478.874C534.821 478.748 534.794 478.609 534.803 478.47C534.812 478.331 534.857 478.196 534.933 478.079C536.621 475.642 538.23 473.158 539.684 470.624C539.735 470.536 539.804 470.459 539.885 470.397C539.966 470.336 540.058 470.291 540.157 470.265C540.255 470.239 540.358 470.232 540.459 470.246C540.56 470.26 540.657 470.293 540.745 470.344C540.833 470.395 540.91 470.464 540.971 470.545C541.033 470.625 541.078 470.718 541.104 470.816C541.13 470.914 541.136 471.017 541.122 471.118C541.108 471.219 541.075 471.316 541.023 471.404C539.535 473.934 537.917 476.487 536.195 478.963C536.079 479.13 535.901 479.245 535.7 479.282C535.5 479.319 535.293 479.275 535.125 479.161C535.008 479.081 534.918 478.97 534.864 478.839L534.881 478.874ZM543.837 463.505C543.782 463.398 543.754 463.28 543.753 463.161C543.752 463.041 543.78 462.922 543.833 462.815C545.134 460.109 546.315 457.378 547.302 454.713C547.379 454.522 547.527 454.369 547.715 454.285C547.904 454.202 548.117 454.195 548.31 454.266C548.405 454.302 548.491 454.357 548.564 454.426C548.638 454.496 548.697 454.58 548.738 454.673C548.779 454.765 548.801 454.865 548.804 454.966C548.806 455.068 548.789 455.169 548.752 455.263C547.714 457.954 546.52 460.724 545.232 463.542C545.141 463.725 544.983 463.864 544.79 463.932C544.598 463.999 544.387 463.989 544.202 463.904C544.031 463.815 543.898 463.667 543.828 463.488L543.837 463.505ZM550.098 446.866C550.014 446.699 549.993 446.506 550.039 446.323C550.799 443.488 551.404 440.613 551.851 437.712C551.856 437.604 551.884 437.499 551.932 437.403C551.981 437.307 552.049 437.222 552.132 437.153C552.215 437.085 552.312 437.035 552.416 437.006C552.52 436.977 552.628 436.97 552.735 436.986C552.841 437.001 552.944 437.039 553.035 437.096C553.126 437.153 553.204 437.229 553.264 437.318C553.324 437.407 553.365 437.508 553.383 437.614C553.402 437.72 553.398 437.829 553.372 437.933C552.934 440.892 552.321 443.822 551.536 446.709C551.481 446.908 551.35 447.078 551.171 447.181C550.992 447.284 550.78 447.312 550.58 447.26C550.473 447.231 550.374 447.179 550.29 447.108C550.205 447.038 550.137 446.949 550.09 446.849L550.098 446.866ZM552.657 429.34C552.602 429.229 552.573 429.107 552.573 428.983C552.612 426.062 552.421 423.142 552.004 420.251C551.974 420.048 552.026 419.841 552.149 419.677C552.272 419.512 552.455 419.402 552.658 419.372C552.861 419.342 553.068 419.394 553.232 419.516C553.397 419.638 553.506 419.821 553.536 420.024C553.969 422.994 554.164 425.995 554.12 428.997C554.118 429.17 554.058 429.338 553.95 429.473C553.842 429.608 553.691 429.703 553.522 429.743C553.354 429.782 553.177 429.764 553.02 429.691C552.863 429.618 552.735 429.495 552.657 429.34V429.34ZM549.999 411.87C549.056 409.08 547.829 406.394 546.337 403.855C546.284 403.769 546.25 403.672 546.235 403.572C546.22 403.471 546.226 403.369 546.253 403.271C546.279 403.173 546.324 403.081 546.387 403.001C546.449 402.921 546.527 402.854 546.616 402.805C546.703 402.752 546.8 402.717 546.901 402.701C547.002 402.686 547.105 402.692 547.204 402.717C547.303 402.742 547.396 402.787 547.477 402.849C547.558 402.911 547.626 402.989 547.676 403.077C549.201 405.676 550.458 408.421 551.429 411.273C551.477 411.455 551.458 411.649 551.374 411.818C551.29 411.987 551.148 412.12 550.974 412.193C550.799 412.265 550.605 412.273 550.426 412.214C550.246 412.154 550.095 412.032 549.999 411.87V411.87Z" fill="#8D9AA2"/> <path d="M551.177 196.088C551.177 191.254 546.574 187.349 540.884 187.349C535.194 187.349 530.591 191.273 530.591 196.088C530.591 200.903 535.201 204.82 540.884 204.82C541.788 204.823 542.69 204.724 543.572 204.525V206.037L547.255 202.963C548.428 202.235 549.402 201.224 550.087 200.024C550.772 198.823 551.146 197.47 551.177 196.088ZM540.884 202.852C536.336 202.852 532.654 199.827 532.654 196.088C532.654 192.349 536.336 189.323 540.884 189.323C545.432 189.323 549.121 192.349 549.121 196.088C549.121 199.827 545.438 202.852 540.884 202.852Z" fill="white"/> <path d="M546.05 196.635H544.129C543.984 196.635 543.845 196.693 543.743 196.795C543.64 196.898 543.583 197.037 543.583 197.182C543.583 197.328 543.64 197.467 543.743 197.569C543.845 197.672 543.984 197.73 544.129 197.73H544.921C544.432 198.318 543.817 198.79 543.123 199.109C542.428 199.428 541.671 199.587 540.907 199.575H540.858C539.977 199.605 539.104 199.397 538.33 198.973C537.557 198.549 536.912 197.924 536.463 197.164C536.388 196.991 536.257 196.85 536.09 196.764C535.923 196.677 535.732 196.651 535.548 196.689C535.364 196.727 535.199 196.828 535.081 196.974C534.963 197.119 534.898 197.302 534.898 197.49C534.897 197.657 534.948 197.821 535.045 197.957C535.67 198.932 536.536 199.727 537.559 200.266C538.582 200.805 539.727 201.069 540.882 201.032C542.7 201.06 544.459 200.384 545.792 199.144V199.679C545.792 199.823 545.849 199.96 545.95 200.062C546.052 200.163 546.189 200.22 546.332 200.22C546.475 200.22 546.613 200.163 546.714 200.062C546.815 199.96 546.872 199.823 546.872 199.679V197.471C546.874 197.362 546.854 197.254 546.813 197.152C546.773 197.051 546.712 196.959 546.636 196.881C546.559 196.803 546.468 196.741 546.368 196.699C546.267 196.657 546.159 196.635 546.05 196.635Z" fill="white"/> <path d="M209.493 271.413C186.501 315.054 131.388 313.312 103.626 307.134C90.8464 298.675 84.8015 284.953 88.0586 264.792C99.4012 200.605 156.076 209.94 156.076 209.94L183.388 187.162L188.542 225.991C188.542 225.991 203.486 238.415 208.659 263.801C209.168 266.307 209.447 268.855 209.493 271.413V271.413Z" fill="#ED1C24"/> <path d="M152.109 317.805C131.506 317.805 114.509 314.404 102.94 306.717C130.899 312.972 186.364 314.736 209.483 270.551C209.965 294.041 191.339 317.805 152.109 317.805Z" fill="#D20023"/> <path d="M162.904 230.028C158.387 231.274 149.124 239.925 136.372 232.759C123.62 225.592 102.94 231.055 102.94 256.647C102.94 282.239 132.576 276.11 139.456 271.332C146.337 266.554 155.312 270.304 159.108 273.036C162.904 275.767 184.266 281.23 190.82 264.47C197.373 247.71 187.706 223.204 162.904 230.028Z" fill="white"/> <path d="M121.934 260.359C125.26 260.359 127.957 256.003 127.957 250.63C127.957 245.257 125.26 240.902 121.934 240.902C118.608 240.902 115.912 245.257 115.912 250.63C115.912 256.003 118.608 260.359 121.934 260.359Z" fill="#222222"/> <path d="M173.821 260.359C177.659 260.359 180.77 256.003 180.77 250.63C180.77 245.257 177.659 240.902 173.821 240.902C169.983 240.902 166.872 245.257 166.872 250.63C166.872 256.003 169.983 260.359 173.821 260.359Z" fill="#222222"/> <path d="M434.13 514.101C418.254 544.689 384.245 544.216 365.268 536.277C357.493 531.058 350.044 527.081 350.282 512.415C351.083 465.018 403.965 474.302 403.965 474.302L432.795 466.91L430.139 492.841C433.099 499.526 434.465 506.802 434.13 514.101V514.101Z" fill="#EB1C22"/> <path d="M392.661 547.967C377.162 548.121 362.744 540.724 354.543 527.512C372.159 537.624 418.329 545.589 434.169 513.839C434.642 530.642 420.002 547.722 392.661 547.967Z" fill="#C2272D"/> <path d="M384.694 488.627C389.394 488.496 391.006 486.022 395.736 484.726C403.048 482.717 410.51 484.726 414.375 490.927C418.24 497.127 418.314 505.176 412.673 511.144C407.033 517.112 400.094 515.395 395.125 513.4C389.571 511.249 383.374 511.301 377.859 513.546C374.024 514.885 362.131 516.239 358.893 508.452C357.482 505.5 357.048 502.192 357.653 498.989C358.257 495.786 359.869 492.846 362.265 490.577C364.044 488.967 366.187 487.788 368.521 487.138C370.855 486.488 373.313 486.385 375.696 486.837C379.963 487.899 382.426 488.627 384.694 488.627Z" fill="white"/> <path d="M370.073 505.343C372.478 504.969 373.988 501.83 373.446 498.333C372.904 494.836 370.514 492.305 368.109 492.679C365.704 493.054 364.194 496.192 364.737 499.689C365.279 503.186 367.668 505.717 370.073 505.343Z" fill="#222222"/> <path d="M405.696 500.688C406.478 497.237 405.187 494.002 402.813 493.462C400.44 492.923 397.882 495.283 397.101 498.734C396.32 502.185 397.611 505.42 399.984 505.96C402.358 506.499 404.915 504.139 405.696 500.688Z" fill="#222222"/> <rect x="607.906" y="148.247" width="180.676" height="7.41233" rx="3.70617" transform="rotate(-180 607.906 148.247)" fill="url(#paint18_linear_2067_2962)"/> <rect x="43.6411" y="532.763" width="255.726" height="14.8247" rx="7.41235" fill="url(#paint19_linear_2067_2962)"/> <rect width="281.669" height="51.8865" transform="translate(306.78 237.195)" fill="white" fill-opacity="0.4"/> <path d="M585.857 236.195H570.293C569.468 236.195 568.676 236.496 568.092 237.03C567.509 237.565 567.181 238.289 567.181 239.045C567.181 239.801 567.509 240.526 568.092 241.061C568.676 241.595 569.468 241.895 570.293 241.895H582.745V253.295C582.745 254.051 583.073 254.776 583.656 255.311C584.24 255.845 585.032 256.145 585.857 256.145C586.683 256.145 587.475 255.845 588.058 255.311C588.642 254.776 588.97 254.051 588.97 253.295V239.045C588.97 238.289 588.642 237.565 588.058 237.03C587.475 236.496 586.683 236.195 585.857 236.195ZM585.857 273.245C585.032 273.245 584.24 273.546 583.656 274.08C583.073 274.615 582.745 275.339 582.745 276.095V287.495H570.293C569.468 287.495 568.676 287.796 568.092 288.33C567.509 288.865 567.181 289.589 567.181 290.345C567.181 291.101 567.509 291.826 568.092 292.361C568.676 292.895 569.468 293.195 570.293 293.195H585.857C586.683 293.195 587.475 292.895 588.058 292.361C588.642 291.826 588.97 291.101 588.97 290.345V276.095C588.97 275.339 588.642 274.615 588.058 274.08C587.475 273.546 586.683 273.245 585.857 273.245Z" fill="url(#paint20_linear_2067_2962)"/> <path d="M286.893 236.195H302.457C303.282 236.195 304.074 236.496 304.658 237.03C305.241 237.565 305.569 238.289 305.569 239.045C305.569 239.801 305.241 240.526 304.658 241.061C304.074 241.595 303.282 241.895 302.457 241.895H290.005V253.295C290.005 254.051 289.677 254.776 289.094 255.311C288.51 255.845 287.718 256.145 286.893 256.145C286.067 256.145 285.275 255.845 284.692 255.311C284.108 254.776 283.78 254.051 283.78 253.295V239.045C283.78 238.289 284.108 237.565 284.692 237.03C285.275 236.496 286.067 236.195 286.893 236.195ZM286.893 273.245C287.718 273.245 288.51 273.546 289.094 274.08C289.677 274.615 290.005 275.339 290.005 276.095V287.495H302.457C303.282 287.495 304.074 287.796 304.658 288.33C305.241 288.865 305.569 289.589 305.569 290.345C305.569 291.101 305.241 291.826 304.658 292.361C304.074 292.895 303.282 293.195 302.457 293.195H286.893C286.067 293.195 285.275 292.895 284.692 292.361C284.108 291.826 283.78 291.101 283.78 290.345V276.095C283.78 275.339 284.108 274.615 284.692 274.08C285.275 273.546 286.067 273.245 286.893 273.245Z" fill="url(#paint21_linear_2067_2962)"/> <defs> <filter id="filter0_d_2067_2962" x="78.6011" y="315.07" width="329.42" height="214.529" filterUnits="userSpaceOnUse" color-interpolation-filters="sRGB"> <feFlood flood-opacity="0" result="BackgroundImageFix"/> <feColorMatrix in="SourceAlpha" type="matrix" values="0 0 0 0 0 0 0 0 0 0 0 0 0 0 0 0 0 0 127 0" result="hardAlpha"/> <feOffset dy="4"/> <feGaussianBlur stdDeviation="8"/> <feComposite in2="hardAlpha" operator="out"/> <feColorMatrix type="matrix" values="0 0 0 0 0 0 0 0 0 0 0 0 0 0 0 0 0 0 0.15 0"/> <feBlend mode="normal" in2="BackgroundImageFix" result="effect1_dropShadow_2067_2962"/> <feBlend mode="normal" in="SourceGraphic" in2="effect1_dropShadow_2067_2962" result="shape"/> </filter> <filter id="filter1_d_2067_2962" x="318.576" y="155.704" width="263.636" height="264.562" filterUnits="userSpaceOnUse" color-interpolation-filters="sRGB"> <feFlood flood-opacity="0" result="BackgroundImageFix"/> <feColorMatrix in="SourceAlpha" type="matrix" values="0 0 0 0 0 0 0 0 0 0 0 0 0 0 0 0 0 0 127 0" result="hardAlpha"/> <feOffset dy="4"/> <feGaussianBlur stdDeviation="8"/> <feComposite in2="hardAlpha" operator="out"/> <feColorMatrix type="matrix" values="0 0 0 0 0 0 0 0 0 0 0 0 0 0 0 0 0 0 0.15 0"/> <feBlend mode="normal" in2="BackgroundImageFix" result="effect1_dropShadow_2067_2962"/> <feBlend mode="normal" in="SourceGraphic" in2="effect1_dropShadow_2067_2962" result="shape"/> </filter> <linearGradient id="paint0_linear_2067_2962" x1="411.479" y1="134.804" x2="694.955" y2="134.804" gradientUnits="userSpaceOnUse"> <stop stop-color="#E0E0E0" stop-opacity="0"/> <stop offset="1" stop-color="#C9C9C9"/> <stop offset="1" stop-color="#E0E0E0"/> </linearGradient> <linearGradient id="paint1_linear_2067_2962" x1="450.394" y1="45.8562" x2="681.622" y2="45.8562" gradientUnits="userSpaceOnUse"> <stop stop-color="#E0E0E0" stop-opacity="0"/> <stop offset="1" stop-color="#C9C9C9"/> <stop offset="1" stop-color="#E0E0E0"/> </linearGradient> <linearGradient id="paint2_linear_2067_2962" x1="169.651" y1="134.804" x2="206.337" y2="134.804" gradientUnits="userSpaceOnUse"> <stop stop-color="#E0E0E0" stop-opacity="0"/> <stop offset="1" stop-color="#C9C9C9"/> <stop offset="1" stop-color="#E0E0E0"/> </linearGradient> <linearGradient id="paint3_linear_2067_2962" x1="248.407" y1="45.8562" x2="283.981" y2="45.8562" gradientUnits="userSpaceOnUse"> <stop stop-color="#E0E0E0" stop-opacity="0"/> <stop offset="1" stop-color="#C9C9C9"/> <stop offset="1" stop-color="#E0E0E0"/> </linearGradient> <linearGradient id="paint4_linear_2067_2962" x1="379.977" y1="90.3303" x2="416.662" y2="90.3303" gradientUnits="userSpaceOnUse"> <stop stop-color="#E0E0E0" stop-opacity="0"/> <stop offset="1" stop-color="#C9C9C9"/> <stop offset="1" stop-color="#E0E0E0"/> </linearGradient> <linearGradient id="paint5_linear_2067_2962" x1="0.09375" y1="59.7541" x2="409.189" y2="59.7541" gradientUnits="userSpaceOnUse"> <stop stop-color="#E0E0E0" stop-opacity="0"/> <stop offset="1" stop-color="#C9C9C9"/> <stop offset="1" stop-color="#E0E0E0"/> </linearGradient> <linearGradient id="paint6_linear_2067_2962" x1="150.965" y1="346.515" x2="150.965" y2="488.09" gradientUnits="userSpaceOnUse"> <stop offset="0.2" stop-color="#ED1C24" stop-opacity="0.71"/> <stop offset="0.9" stop-color="#ED1C24" stop-opacity="0"/> </linearGradient> <linearGradient id="paint7_linear_2067_2962" x1="287.166" y1="272.171" x2="287.166" y2="487.986" gradientUnits="userSpaceOnUse"> <stop offset="0.2" stop-color="#ED1C24" stop-opacity="0.71"/> <stop offset="0.9" stop-color="#ED1C24" stop-opacity="0"/> </linearGradient> <linearGradient id="paint8_linear_2067_2962" x1="332.567" y1="346.515" x2="332.567" y2="488.09" gradientUnits="userSpaceOnUse"> <stop offset="0.2" stop-color="#ED1C24" stop-opacity="0.71"/> <stop offset="0.9" stop-color="#ED1C24" stop-opacity="0"/> </linearGradient> <linearGradient id="paint9_linear_2067_2962" x1="196.365" y1="279.392" x2="196.365" y2="479.669" gradientUnits="userSpaceOnUse"> <stop offset="0.2" stop-color="#ED1C24" stop-opacity="0.71"/> <stop offset="0.9" stop-color="#ED1C24" stop-opacity="0"/> </linearGradient> <linearGradient id="paint10_linear_2067_2962" x1="241.766" y1="353.431" x2="241.766" y2="488.1" gradientUnits="userSpaceOnUse"> <stop offset="0.2" stop-color="#ED1C24" stop-opacity="0.71"/> <stop offset="0.9" stop-color="#ED1C24" stop-opacity="0"/> </linearGradient> <linearGradient id="paint11_linear_2067_2962" x1="45.4946" y1="158.439" x2="173.024" y2="158.439" gradientUnits="userSpaceOnUse"> <stop stop-color="#ED1C24"/> <stop offset="1" stop-color="#E4E4E4"/> </linearGradient> <linearGradient id="paint12_linear_2067_2962" x1="158.852" y1="266.096" x2="711.317" y2="266.096" gradientUnits="userSpaceOnUse"> <stop stop-color="#00469C" stop-opacity="0"/> <stop offset="0.640625" stop-color="#00469C"/> <stop offset="1" stop-color="#00469C" stop-opacity="0"/> </linearGradient> <linearGradient id="paint13_linear_2067_2962" x1="537.05" y1="250.861" x2="352.136" y2="277.886" gradientUnits="userSpaceOnUse"> <stop offset="0.2" stop-color="white"/> <stop offset="0.9" stop-color="white" stop-opacity="0"/> </linearGradient> <linearGradient id="paint14_linear_2067_2962" x1="517.217" y1="302.109" x2="352.124" y2="323.556" gradientUnits="userSpaceOnUse"> <stop offset="0.2" stop-color="white"/> <stop offset="0.9" stop-color="white" stop-opacity="0"/> </linearGradient> <linearGradient id="paint15_linear_2067_2962" x1="602.872" y1="291.858" x2="481.062" y2="303.444" gradientUnits="userSpaceOnUse"> <stop offset="0.2" stop-color="white"/> <stop offset="0.9" stop-color="white" stop-opacity="0"/> </linearGradient> <linearGradient id="paint16_linear_2067_2962" x1="474.716" y1="225.239" x2="352.907" y2="236.825" gradientUnits="userSpaceOnUse"> <stop offset="0.2" stop-color="white"/> <stop offset="0.9" stop-color="white" stop-opacity="0"/> </linearGradient> <linearGradient id="paint17_linear_2067_2962" x1="578.92" y1="327.192" x2="353.109" y2="365.807" gradientUnits="userSpaceOnUse"> <stop offset="0.2" stop-color="white"/> <stop offset="0.9" stop-color="white" stop-opacity="0"/> </linearGradient> <linearGradient id="paint18_linear_2067_2962" x1="609.519" y1="150.1" x2="812.313" y2="142.979" gradientUnits="userSpaceOnUse"> <stop stop-color="#ED1C24" stop-opacity="0.5"/> <stop offset="0.317184" stop-color="white" stop-opacity="0.4"/> <stop offset="0.721526" stop-color="white"/> <stop offset="0.9" stop-color="white" stop-opacity="0.4"/> </linearGradient> <linearGradient id="paint19_linear_2067_2962" x1="45.9244" y1="536.469" x2="333.132" y2="529.331" gradientUnits="userSpaceOnUse"> <stop stop-color="#ED1C24" stop-opacity="0.5"/> <stop offset="0.317184" stop-color="white" stop-opacity="0.4"/> <stop offset="0.721526" stop-color="white"/> <stop offset="0.9" stop-color="white" stop-opacity="0.4"/> </linearGradient> <linearGradient id="paint20_linear_2067_2962" x1="565.331" y1="265.883" x2="591.871" y2="265.867" gradientUnits="userSpaceOnUse"> <stop stop-color="#FFBA00" stop-opacity="0.97"/> <stop offset="1" stop-color="#FFBA00" stop-opacity="0"/> </linearGradient> <linearGradient id="paint21_linear_2067_2962" x1="307.419" y1="265.883" x2="280.879" y2="265.867" gradientUnits="userSpaceOnUse"> <stop stop-color="#FFBA00" stop-opacity="0.97"/> <stop offset="1" stop-color="#FFBA00" stop-opacity="0"/> </linearGradient> </defs></svg>